<svg width="60" height="60" viewBox="0 0 60 60" fill="none" xmlns="http://www.w3.org/2000/svg">
<path opacity="0.3" d="M30 11.6748C19.875 20.9248 15 28.6498 15 34.5248C15 43.5998 21.625 50.0248 30 50.0248C38.375 50.0248 45 43.5998 45 34.5248C45 28.6498 40.125 20.8998 30 11.6748V11.6748ZM30.7 47.4748C25.375 47.7998 19.15 44.7498 17.725 37.1748C17.6421 36.6842 17.7575 36.1807 18.0459 35.7751C18.3342 35.3696 18.7718 35.0952 19.2625 35.0123C19.7532 34.9294 20.2566 35.0449 20.6622 35.3332C21.0677 35.6215 21.3421 36.0592 21.425 36.5498C22.45 42.1248 27.125 43.9998 30.525 43.7248C31.6 43.6748 32.5 44.5248 32.5 45.5998C32.5 46.5998 31.7 47.4248 30.7 47.4748Z" fill="#0072B3"/>
<path d="M30 5C16.675 16.375 10 26.2 10 34.5C10 46.95 19.5 55 30 55C40.5 55 50 46.95 50 34.5C50 26.2 43.325 16.375 30 5ZM30 50C21.625 50 15 43.575 15 34.5C15 28.65 19.875 20.9 30 11.65C40.125 20.9 45 28.625 45 34.5C45 43.575 38.375 50 30 50ZM19.575 35C20.5 35 21.25 35.65 21.425 36.55C22.45 42.1 27.125 44 30.525 43.725C31.6 43.675 32.5 44.525 32.5 45.6C32.5 46.6 31.7 47.425 30.7 47.475C25.375 47.8 19.15 44.75 17.725 37.175C17.6816 36.907 17.6968 36.6327 17.7698 36.3711C17.8428 36.1096 17.9717 35.867 18.1476 35.6602C18.3235 35.4534 18.5423 35.2872 18.7887 35.1732C19.0352 35.0592 19.3035 35.0001 19.575 35V35Z" fill="white"/>
</svg>
