<svg width="60" height="60" viewBox="0 0 60 60" fill="none" xmlns="http://www.w3.org/2000/svg">
<path d="M39.5911 9.07933C40.1382 8.8058 40.6852 8.54109 41.2499 8.30286C45.0431 8.91096 48.9235 8.00816 52.0587 5.78815C48.8735 3.32639 43.0499 4.41168 40.994 7.77345C40.2617 8.09109 39.5382 8.43521 38.8323 8.81462C40.9764 6.87345 42.6882 4.40286 42.6087 1.95874C37.3146 2.96462 34.3499 7.71168 35.7352 10.7823C34.3547 11.7755 33.067 12.8918 31.8882 14.1176C33.3352 11.6205 34.1734 8.82345 33.3352 6.46756C28.6764 9.00874 27.2734 14.4087 29.5234 16.9058C28.5087 18.2928 27.6226 19.7695 26.8764 21.3176C27.5029 18.4411 27.4499 15.4852 25.9411 13.5264C22.3323 17.3117 22.5529 22.8882 25.297 24.6882C22.3625 33.6105 21.5557 43.0955 22.9411 52.3852C22.9737 52.5099 23.0514 52.6181 23.1592 52.6888C23.267 52.7595 23.3972 52.7877 23.5246 52.7679C23.6519 52.7482 23.7675 52.6818 23.8488 52.5818C23.93 52.4818 23.9713 52.3551 23.9646 52.2264C22.5854 43.051 23.3895 33.6797 26.3117 24.8734C27.9317 24.7216 29.4893 24.1727 30.8467 23.2755C32.2041 22.3783 33.3195 21.1603 34.094 19.7293C33.0312 19.1885 31.8169 19.0223 30.6479 19.2577C29.4788 19.4931 28.4235 20.1163 27.6529 21.0264C28.3312 19.6834 29.1161 18.3969 29.9999 17.1793C31.597 17.6349 33.2859 17.6619 34.8968 17.2576C36.5076 16.8533 37.9836 16.0321 39.1764 14.8764C38.3358 14.0432 37.2402 13.5157 36.0647 13.3781C34.8891 13.2406 33.7013 13.5009 32.6911 14.1176C33.7516 13.0613 34.8966 12.0934 36.1146 11.2234C37.4978 12.1459 39.0998 12.6871 40.7591 12.7925C42.4183 12.8978 44.0759 12.5635 45.5646 11.8234C45.0132 10.7693 44.1275 9.92801 43.0464 9.43139C41.9654 8.93478 40.7501 8.81096 39.5911 9.07933V9.07933Z" fill="white"/>
<path d="M58.2352 15.7588C55.5881 12.7147 49.6852 12.6176 47.0028 15.4765C46.2176 15.6441 45.4411 15.8382 44.6734 16.0676C47.1617 14.5941 49.3234 12.5382 49.747 10.1117C44.3558 10.0323 40.4999 14.0823 41.2499 17.3382C39.7065 18.0313 38.2297 18.8642 36.8381 19.8265C38.7528 17.6647 40.147 15.0617 39.794 12.6176C34.7205 14.1706 32.2587 19.2088 33.9617 22.0853C32.6709 23.2354 31.4894 24.5026 30.4323 25.8706C31.6234 23.1706 32.197 20.2676 31.0764 18.0441C26.7881 21.0265 25.8793 26.5412 28.2352 28.8529C25.9499 33.9529 24.2205 39.75 23.3205 48.6794H24.4146C25.5087 39.0617 27.6793 31.8176 29.1793 29.2676C30.7969 29.4464 32.4335 29.2226 33.9437 28.616C35.4538 28.0095 36.7907 27.0391 37.8352 25.7912C36.9005 25.0526 35.7441 24.6508 34.5528 24.6508C33.3616 24.6508 32.2052 25.0526 31.2705 25.7912C32.2189 24.6124 33.2605 23.5118 34.3852 22.5C35.8543 23.2569 37.4964 23.6145 39.1471 23.5371C40.7979 23.4596 42.3993 22.9499 43.7911 22.0588C43.1389 21.0756 42.1769 20.3385 41.0579 19.9644C39.9389 19.5903 38.727 19.6008 37.6146 19.9941C38.8666 19.1748 40.1827 18.4578 41.5499 17.85C42.7183 19.0318 44.1785 19.8837 45.7823 20.3191C47.3861 20.7545 49.0766 20.7581 50.6823 20.3294C50.3495 19.1923 49.6496 18.1973 48.6919 17.4998C47.7342 16.8023 46.5725 16.4414 45.3881 16.4735C45.9793 16.3059 46.5705 16.1647 47.1528 16.0412C50.7418 17.3998 54.7201 17.2985 58.2352 15.7588V15.7588Z" fill="white"/>
<path d="M35.9205 32.8412C25.3323 30.5294 25.3323 51.5912 25.3323 51.5912L34.3058 58.0412C34.3058 58.0412 32.2058 41.4706 34.7911 36.7059C36.7764 33.0618 41.1617 41.0559 43.0764 44.9118C43.1382 45.0313 43.2373 45.1274 43.3587 45.1854C43.4801 45.2435 43.6171 45.2603 43.7489 45.2334C43.8807 45.2064 44.0001 45.1371 44.089 45.0361C44.1778 44.935 44.2313 44.8077 44.2411 44.6735C44.4088 41.1794 43.6588 34.5265 35.9205 32.8412ZM2.45289 6.75882C2.37439 6.70004 2.27793 6.67033 2.17997 6.67475C2.082 6.67916 1.98861 6.71744 1.91572 6.78304C1.84283 6.84864 1.79496 6.9375 1.78028 7.03446C1.76561 7.13142 1.78503 7.23047 1.83524 7.3147C5.12642 12.5382 14.0117 27.6088 16.3235 41.0559C16.3235 41.0559 19.6235 20.0912 2.45289 6.75882Z" fill="white"/>
<path d="M38.3293 3.265C35.2146 1.86206 30.5999 3.91795 29.5587 7.05912C29.0116 7.465 28.4822 7.94147 27.9704 8.34736C29.3646 6.31795 30.2999 3.93559 29.7351 1.92383C25.5881 3.83853 24.044 8.34736 25.791 10.5885C24.8377 11.6847 23.987 12.8661 23.2499 14.1179C23.9557 11.7621 24.1322 9.25618 22.941 7.49147C19.5881 10.5179 19.491 15.2915 21.8469 16.8974C21.2694 18.2462 20.8204 19.6465 20.5057 21.0797C20.4528 18.5738 19.8263 16.1297 18.1851 14.8062C15.944 18.6532 17.2234 23.2326 19.8528 24.1768C19.1848 32.1627 20.3934 40.1941 23.3822 47.6297C23.4153 47.7103 23.4715 47.7792 23.5437 47.8279C23.616 47.8766 23.701 47.9028 23.7881 47.9032C23.8433 47.9157 23.9005 47.9157 23.9557 47.9032C24.0096 47.882 24.0587 47.8501 24.1 47.8095C24.1413 47.7689 24.1741 47.7204 24.1963 47.6669C24.2185 47.6134 24.2298 47.556 24.2294 47.4981C24.229 47.4401 24.2169 47.3829 24.194 47.3297C21.2475 40.001 20.0686 32.0813 20.7528 24.2121C22.0665 23.7688 23.2501 23.0075 24.1984 21.9961C25.1467 20.9847 25.8302 19.7545 26.1881 18.415C25.2005 18.1827 24.1636 18.2876 23.2426 18.713C22.3215 19.1383 21.5693 19.8596 21.1057 20.7621C21.4104 19.5062 21.8207 18.2783 22.3322 17.0915C23.7422 17.1535 25.1436 16.8428 26.3953 16.1906C27.6469 15.5385 28.7046 14.5679 29.4616 13.3768C28.5992 12.8555 27.5882 12.635 26.587 12.75C25.5858 12.865 24.6511 13.3088 23.9293 14.0121C24.6001 12.9284 25.3585 11.9014 26.1969 10.9415C27.5241 11.4308 28.9568 11.562 30.3508 11.3219C31.7448 11.0818 33.051 10.4789 34.1381 9.57383C33.4722 8.81402 32.5733 8.29627 31.5819 8.1015C30.5905 7.90674 29.5625 8.04595 28.6587 8.49736C29.0469 8.16206 29.4528 7.83559 29.8675 7.52677C33.139 7.27499 36.1794 5.74371 38.3293 3.265V3.265Z" fill="white"/>
<path d="M26.5588 48.3354C15.3794 30.3707 17.0559 9.70595 17.9912 2.96477C18.0037 2.86365 17.9808 2.76133 17.9264 2.67518C17.872 2.58902 17.7895 2.52434 17.6928 2.49212C17.5962 2.4599 17.4914 2.46213 17.3962 2.49843C17.301 2.53472 17.2213 2.60285 17.1706 2.69124C0.591178 31.5883 23.9029 58.0412 23.9029 58.0412H34.2882C31.0765 49.9236 28.65 51.7059 26.5588 48.3354Z" fill="white"/>
</svg>
