<svg width="64" height="64" viewBox="0 0 64 64" fill="none" xmlns="http://www.w3.org/2000/svg">
<g clip-path="url(#clip0_541_41)">
<path d="M34.2461 63.7617C35.6331 63.6598 37.039 63.6196 38.3711 63.3477C40.4627 62.9207 42.4773 62.2911 44.3984 61.4805C46.3195 60.6698 48.1476 59.6785 49.8555 58.5273C51.5633 57.3762 53.1537 56.0657 54.6055 54.6172C56.0573 53.1687 57.3704 51.5816 58.5234 49.8789C59.6765 48.1762 60.669 46.3589 61.4805 44.4453C62.2919 42.5317 62.9205 40.5228 63.3477 38.4414C63.4792 37.8003 63.4544 37.1114 63.5469 36.457L48.2266 21.1367C47.7002 20.6104 46.9711 20.2891 46.1523 20.2891H40.5391L38.3164 18.0664C38.2579 18.0079 38.1698 17.9795 38.082 17.9648C37.9943 17.9502 37.9061 17.9492 37.8477 17.9492L32 16.5C31.9949 16.4949 31 17.5 30.7813 17.8906C31 17.5 30.8889 16.5 30.875 16.5C30.8311 16.5 30.6561 17.8907 30.5977 17.9492C30.4807 17.9492 30.3633 18.0664 30.3633 18.0664L28.2578 20.2891L23.5 20C30.5781 23.2852 21.8625 20 23.5 20L17 39C17 29.7852 19 39 17 42.5L34.2461 63.7617Z" fill="#0072B2"/>
<path opacity="0.3" d="M32 16.729C23.5625 24.4373 19.5 30.8748 19.5 35.7707C19.5 43.3332 25.0208 48.6873 32 48.6873C38.9792 48.6873 44.5 43.3332 44.5 35.7707C44.5 30.8748 40.4375 24.4165 32 16.729V16.729ZM32.5833 46.5623C28.1458 46.8332 22.9583 44.2915 21.7708 37.979C21.7018 37.5701 21.798 37.1506 22.0382 36.8126C22.2785 36.4747 22.6432 36.246 23.0521 36.1769C23.461 36.1079 23.8805 36.204 24.2185 36.4443C24.5564 36.6846 24.7851 37.0493 24.8542 37.4582C25.7083 42.104 29.6042 43.6665 32.4375 43.4373C33.3333 43.3957 34.0833 44.104 34.0833 44.9998C34.0833 45.8332 33.4167 46.5207 32.5833 46.5623Z" fill="#0072B3"/>
<path d="M32 11.1665C20.8958 20.6457 15.3333 28.8332 15.3333 35.7498C15.3333 46.1248 23.25 52.8332 32 52.8332C40.75 52.8332 48.6666 46.1248 48.6666 35.7498C48.6666 28.8332 43.1041 20.6457 32 11.1665ZM32 48.6665C25.0208 48.6665 19.5 43.3123 19.5 35.7498C19.5 30.8748 23.5625 24.4165 32 16.7082C40.4375 24.4165 44.5 30.854 44.5 35.7498C44.5 43.3123 38.9791 48.6665 32 48.6665ZM23.3125 36.1665C24.0833 36.1665 24.7083 36.7082 24.8541 37.4582C25.7083 42.0832 29.6041 43.6665 32.4375 43.4373C33.3333 43.3957 34.0833 44.104 34.0833 44.9998C34.0833 45.8332 33.4166 46.5207 32.5833 46.5623C28.1458 46.8332 22.9583 44.2915 21.7708 37.979C21.7346 37.7556 21.7473 37.5271 21.8082 37.3091C21.869 37.0912 21.9764 36.889 22.123 36.7167C22.2696 36.5443 22.4519 36.4058 22.6573 36.3108C22.8626 36.2159 23.0862 36.1666 23.3125 36.1665V36.1665Z" fill="white"/>
</g>
<defs>
<clipPath id="clip0_541_41">
<rect width="64" height="64" fill="white"/>
</clipPath>
</defs>
</svg>
