<svg width="24" height="24" viewBox="0 0 24 24" fill="none" xmlns="http://www.w3.org/2000/svg">
<path d="M21.988 0.607097C21.7104 0.394329 21.3497 0.322914 21.0117 0.413372L12.297 2.75345C11.8055 2.88566 11.4639 3.33097 11.4639 3.84V8.11588H10.0488V5.98637C10.0488 5.53483 9.77893 5.12723 9.36328 4.95072C8.9469 4.77347 8.46606 4.8632 8.14233 5.17704L1.91492 11.1906C1.69556 11.4026 1.57141 11.6949 1.57141 11.9999C1.57141 12.305 1.69556 12.5972 1.91492 12.8092L8.14233 18.8228C8.3562 19.0293 8.63781 19.1385 8.92419 19.1385C9.07215 19.1385 9.22155 19.1092 9.36328 19.0491C9.77893 18.8726 10.0488 18.465 10.0488 18.0135V15.884H11.4639V20.1598C11.4639 20.6689 11.8055 21.1142 12.297 21.2464L21.0117 23.5865C21.108 23.6121 21.2062 23.6249 21.3036 23.6249C21.5486 23.6249 21.7896 23.5451 21.988 23.3927C22.266 23.1796 22.4286 22.8497 22.4286 22.4999V1.49992C22.4286 1.15019 22.266 0.820232 21.988 0.607097ZM8.92383 13.634C8.30237 13.634 7.79883 14.1375 7.79883 14.759V15.3632L4.3158 11.9999L7.79883 8.63663V9.24088C7.79883 9.86234 8.30237 10.3659 8.92383 10.3659H14.7902V13.6339H8.92383V13.634ZM20.1786 21.0329L13.7139 19.297V15.884H15.9152C16.5366 15.884 17.0402 15.3804 17.0402 14.759V9.24089C17.0402 8.61943 16.5366 8.11589 15.9152 8.11589H13.7139V4.70279L20.1786 2.96696V21.0329Z" fill="#63B6EE"/>
</svg>
