<svg width="24" height="24" viewBox="0 0 24 24" fill="none" xmlns="http://www.w3.org/2000/svg">
<path d="M22.7766 5.8172C23.3953 7.04064 23.1844 8.50782 22.9219 9.85314C22.4719 12.1641 21.9 14.5266 20.5078 16.425C18.3281 19.3969 14.3203 20.7375 10.6875 20.1375C7.42033 19.5984 4.49533 17.6391 2.41876 15.0516C2.00626 14.5359 1.67814 13.9641 1.44376 13.3453C1.3172 13.0078 1.21876 12.6609 1.15314 12.3047C0.857827 10.7484 0.632827 9.15001 1.05939 7.63595C1.53751 5.93907 3.10314 4.41564 4.85158 4.61251C5.90626 4.7297 6.80158 5.42814 7.80001 5.77501C9.4922 6.36564 11.3672 5.93907 13.05 5.32501C14.7328 4.71095 16.3875 3.90939 18.1688 3.74064C19.9453 3.57189 21.9656 4.21876 22.7766 5.8172Z" fill="#0072B3" opacity="0.3"/>
<path d="M23.5125 22.786H19.0266V20.4141C19.8516 20.3907 21.4828 20.1938 22.5703 19.1063C24.0516 17.625 23.8781 15.15 23.8687 15.0469C23.85 14.8079 23.6578 14.6157 23.4187 14.5969C23.3156 14.5875 20.8359 14.4188 19.3547 15.9C19.2328 16.0219 19.125 16.1485 19.0266 16.2797V14.7422C19.8516 14.7188 21.4828 14.5219 22.5703 13.4344C24.0516 11.9532 23.8781 9.47817 23.8687 9.37505C23.85 9.13599 23.6578 8.9438 23.4187 8.92505C23.3156 8.91567 20.8359 8.74692 19.3547 10.2282C19.2328 10.35 19.125 10.4766 19.0266 10.6079V9.07036C19.8516 9.04692 21.4828 8.85005 22.5703 7.76255C24.0516 6.2813 23.8781 3.8063 23.8687 3.70317C23.85 3.46411 23.6578 3.27192 23.4187 3.25317C23.3437 3.24849 22.0453 3.15942 20.7703 3.6563C20.5031 1.80005 18.9141 0.417236 18.8437 0.351611C18.6609 0.196924 18.3891 0.196924 18.2062 0.351611C18.1312 0.412549 16.5562 1.79536 16.3031 3.64224C15.0281 3.14536 13.7297 3.23442 13.6547 3.23911C13.4156 3.25786 13.2234 3.45005 13.2047 3.68911C13.1953 3.79224 13.0219 6.27192 14.5031 7.74849C15.5906 8.83599 17.2219 9.03286 18.0469 9.0563V10.5938C17.9484 10.4625 17.8406 10.336 17.7187 10.2141C16.2375 8.73286 13.7625 8.90161 13.6547 8.91099C13.4156 8.92974 13.2234 9.12192 13.2047 9.36099C13.1953 9.46411 13.0219 11.9438 14.5031 13.4204C15.5906 14.5079 17.2219 14.7047 18.0469 14.7282V16.2657C17.9484 16.1344 17.8406 16.0079 17.7187 15.886C16.2375 14.4047 13.7625 14.5735 13.6547 14.5829C13.4156 14.6016 13.2234 14.7938 13.2047 15.0329C13.1953 15.136 13.0219 17.611 14.5031 19.0922C15.5906 20.1797 17.2219 20.3766 18.0469 20.4V22.7719H5.95781V20.4C6.78281 20.3766 8.41406 20.1797 9.50156 19.0922C10.9828 17.611 10.8094 15.136 10.8 15.0329C10.7812 14.7938 10.5891 14.6016 10.35 14.5829C10.2469 14.5735 7.76719 14.4047 6.28594 15.886C6.16406 16.0079 6.05625 16.1344 5.95781 16.2657V14.7282C6.78281 14.7047 8.41406 14.5079 9.50156 13.4204C10.9828 11.9391 10.8094 9.46411 10.8 9.36099C10.7812 9.12192 10.5891 8.92974 10.35 8.91099C10.2469 8.90161 7.76719 8.73286 6.28594 10.2141C6.16406 10.336 6.05625 10.4625 5.95781 10.5938V9.0563C6.78281 9.03286 8.41406 8.83599 9.50156 7.74849C10.9828 6.26724 10.8094 3.79224 10.8 3.68911C10.7812 3.45005 10.5891 3.25786 10.35 3.23911C10.275 3.23442 8.97656 3.14536 7.70156 3.64224C7.43437 1.79536 5.85 0.412549 5.775 0.351611C5.59219 0.196924 5.32031 0.196924 5.1375 0.351611C5.0625 0.417236 3.4875 1.80005 3.23437 3.64224C1.95937 3.14536 0.660937 3.23442 0.585937 3.23911C0.346875 3.25786 0.154687 3.45005 0.135937 3.68911C0.126562 3.79692 -0.046875 6.27192 1.42969 7.75317C2.51719 8.84067 4.14844 9.03755 4.97344 9.06099V10.5985C4.875 10.4672 4.76719 10.3407 4.64531 10.2188C3.16406 8.73755 0.684375 8.9063 0.58125 8.91567C0.342187 8.93442 0.15 9.12661 0.13125 9.36567C0.121875 9.4688 -0.0515625 11.9485 1.42969 13.425C2.51719 14.5125 4.14844 14.7094 4.97344 14.7329V16.2704C4.875 16.1391 4.76719 16.0125 4.64531 15.8907C3.16406 14.4094 0.689062 14.5782 0.58125 14.5875C0.342187 14.6063 0.15 14.7985 0.13125 15.0375C0.121875 15.1407 -0.0515625 17.6157 1.42969 19.0969C2.51719 20.1844 4.14844 20.3813 4.97344 20.4047V22.7766H0.4875C0.215625 22.7766 0 22.9969 0 23.2641C0 23.536 0.220312 23.7516 0.4875 23.7516H23.5078C23.7797 23.7516 23.9953 23.5313 23.9953 23.2641C24 23.0016 23.7797 22.786 23.5125 22.786ZM20.0437 16.5891C20.8781 15.7547 22.2047 15.5954 22.8937 15.5672C22.8703 16.2563 22.7109 17.5735 21.8766 18.4125C21.0469 19.2422 19.7203 19.4063 19.0312 19.4344C19.0547 18.7407 19.2141 17.4141 20.0437 16.5891ZM20.0437 10.9125C20.8781 10.0829 22.2047 9.9188 22.8937 9.89067C22.8703 10.5797 22.7062 11.9016 21.8766 12.736C21.0469 13.5657 19.7203 13.7297 19.0312 13.7579C19.0547 13.0641 19.2141 11.7422 20.0437 10.9125ZM21.8766 7.05942C21.0469 7.88911 19.7203 8.05317 19.0312 8.0813C19.0547 7.39224 19.2187 6.06567 20.0484 5.23599C20.8828 4.40161 22.2094 4.24224 22.8984 4.21411C22.8703 4.90317 22.7109 6.22505 21.8766 7.05942ZM18.525 1.41099C18.9984 1.91255 19.8234 2.95786 19.8281 4.1438C19.6594 4.26099 19.5 4.39224 19.35 4.54224C18.9844 4.90786 18.7219 5.32974 18.5297 5.76567C18.3375 5.32974 18.075 4.90317 17.7094 4.54224C17.5594 4.39224 17.4 4.26099 17.2312 4.1438C17.2359 2.96724 18.0562 1.91724 18.525 1.41099ZM15.1922 7.05942C14.3578 6.22974 14.1984 4.90317 14.175 4.21411C14.8641 4.23755 16.1859 4.39692 17.025 5.23599C17.8547 6.06567 18.0187 7.39224 18.0422 8.0813C17.3484 8.05317 16.0219 7.88911 15.1922 7.05942ZM15.1922 12.736C14.3578 11.9063 14.1984 10.5797 14.175 9.89067C14.8641 9.91411 16.1859 10.0735 17.025 10.9125C17.8547 11.7422 18.0187 13.0688 18.0422 13.7579C17.3484 13.7344 16.0266 13.5704 15.1922 12.736ZM15.1922 18.4079C14.3578 17.5782 14.1984 16.2516 14.175 15.5625C14.8641 15.586 16.1859 15.7454 17.025 16.5844C17.8547 17.4141 18.0187 18.7407 18.0422 19.4297C17.3484 19.4063 16.0219 19.2422 15.1922 18.4079ZM6.97969 16.5891C7.81406 15.7594 9.13594 15.5954 9.82969 15.5672C9.80625 16.2563 9.64219 17.5782 8.8125 18.4125C7.97812 19.2422 6.65625 19.4063 5.9625 19.4344C5.98594 18.7407 6.15 17.4141 6.97969 16.5891ZM6.97969 10.9125C7.81406 10.0829 9.13594 9.9188 9.82969 9.89067C9.80625 10.5797 9.64219 11.9016 8.8125 12.736C7.97812 13.5657 6.65625 13.7297 5.9625 13.7579C5.98594 13.0641 6.15 11.7422 6.97969 10.9125ZM8.80781 7.05942C7.97344 7.8938 6.64687 8.05317 5.95781 8.0813C5.98125 7.39224 6.14062 6.07036 6.975 5.23599C7.80937 4.4063 9.13125 4.24224 9.825 4.21411C9.80156 4.90317 9.6375 6.22974 8.80781 7.05942ZM5.46094 1.41099C5.93437 1.91255 6.75937 2.95786 6.76406 4.1438C6.59531 4.26099 6.43594 4.39224 6.28594 4.54224C5.92031 4.90786 5.65781 5.32974 5.46562 5.76567C5.27344 5.32974 5.01094 4.90317 4.64531 4.54224C4.49531 4.39224 4.33594 4.26099 4.16719 4.1438C4.16719 2.96724 4.99219 1.91724 5.46094 1.41099ZM2.12344 7.05942C1.29375 6.22974 1.12969 4.90317 1.10625 4.21411C1.79531 4.23755 3.12187 4.40161 3.95625 5.23599C4.78594 6.06567 4.95 7.39224 4.97344 8.0813C4.28437 8.05317 2.95781 7.88911 2.12344 7.05942ZM2.12344 12.736C1.29375 11.9063 1.12969 10.5797 1.10625 9.89067C1.79531 9.91411 3.11719 10.0735 3.95625 10.9125C4.78594 11.7422 4.95 13.0688 4.97344 13.7579C4.28437 13.7344 2.9625 13.5704 2.12344 12.736ZM2.12344 18.4079C1.29375 17.5782 1.12969 16.2516 1.10625 15.5625C1.79531 15.586 3.11719 15.7454 3.95625 16.5844C4.78594 17.4141 4.95 18.7407 4.97344 19.4297C4.28437 19.4063 2.95781 19.2422 2.12344 18.4079Z" fill="#FFFFFF"/>
</svg>
