<svg width="60" height="60" viewBox="0 0 60 60" fill="none" xmlns="http://www.w3.org/2000/svg">
<g clip-path="url(#clip0_538_36)">
<path d="M40.7325 12.1989C36.2064 7.66984 27.4287 7.5 26.25 7.5H22.5V13.9906C18.8109 15.6219 15.3639 17.891 12.8259 20.6021L0 11.25V48.75L12.8259 39.3978C13.5807 40.204 14.4326 40.959 15.3298 41.6835L16.875 52.4999L25.0898 47.0235C28.2147 48.1164 31.4017 48.7499 34.2858 48.7499C51.4286 48.7499 60 29.9999 60 29.9999C60 29.9999 53.5687 15.9805 40.7325 12.1989L40.7325 12.1989ZM41.25 44.2309C37.652 41.2397 35.2462 36.0031 35.2462 30C35.2462 23.9969 37.652 18.7603 41.25 15.7691C38.4741 19.2085 37.5 24.2725 37.5 30C37.5 35.7275 38.4741 40.7916 41.25 44.2309ZM46.875 28.125C45.8395 28.125 45 27.2855 45 26.25C45 25.2143 45.8395 24.375 46.875 24.375C47.9105 24.375 48.75 25.2143 48.75 26.25C48.75 27.2855 47.9105 28.125 46.875 28.125Z" fill="white"/>
</g>
<defs>
<clipPath id="clip0_538_36">
<rect width="60" height="60" fill="white"/>
</clipPath>
</defs>
</svg>
