<svg width="100" height="100" viewBox="0 0 100 100" fill="none" xmlns="http://www.w3.org/2000/svg">
<path d="M59.36 35.5402L56.36 39.6002L60.8 44.6002L65.19 42.1302C66.3746 42.9142 67.6551 43.5427 69 44.0002L69.75 49.0002L76.45 49.4002L77.79 44.5602C79.1773 44.2796 80.522 43.819 81.79 43.1902L85.79 46.1902L90.79 41.7402L88.31 37.3702C89.0988 36.1913 89.7214 34.9092 90.16 33.5602L95.16 32.8202L95.57 26.1302L90.72 24.7802C90.4423 23.3921 89.9816 22.0471 89.35 20.7802L92.35 16.7302L87.91 11.7302L83.52 14.2002C82.34 13.4282 81.0664 12.8099 79.73 12.3602L78.98 7.3602L72.28 6.9502L71 11.7702C69.6127 12.0508 68.268 12.5114 67 13.1402L63 10.1402L58 14.5802L60.37 19.0002C59.5859 20.1798 58.9606 21.4574 58.51 22.8002L53.51 23.5402L53.1 30.2402L58 31.5702C58.277 32.9475 58.7343 34.2823 59.36 35.5402V35.5402ZM67.6 20.5402C69.1135 19.2042 70.9892 18.3469 72.9898 18.0766C74.9905 17.8063 77.0264 18.1352 78.8402 19.0218C80.654 19.9083 82.1642 21.3127 83.18 23.0573C84.1958 24.802 84.6716 26.8086 84.5473 28.8236C84.4229 30.8387 83.704 32.7716 82.4813 34.3781C81.2587 35.9846 79.5872 37.1925 77.6781 37.8493C75.7691 38.5061 73.7082 38.5821 71.756 38.0679C69.8037 37.5537 68.0477 36.4722 66.71 34.9602C65.8163 33.9546 65.1301 32.7822 64.691 31.5106C64.2518 30.2389 64.0683 28.893 64.151 27.5502C64.2338 26.2074 64.581 24.8941 65.1729 23.686C65.7648 22.4778 66.5896 21.3985 67.6 20.5102V20.5402ZM8.62998 80.3202L15.48 79.2202C16.626 80.7844 17.9706 82.1929 19.48 83.4102L18.06 90.2102L26.51 93.9402L30.57 88.3202C32.4901 88.6082 34.4389 88.6518 36.37 88.4502L40.19 94.2502L48.8 90.9102L47.7 84.0702C49.2809 82.9301 50.7034 81.585 51.93 80.0702L58.69 81.4902L62.43 73.0002L56.81 69.0002C57.1404 67.0647 57.2043 65.093 57 63.1402L62.79 59.3502L59.46 50.7302L52.62 51.8302C51.471 50.2626 50.1268 48.8479 48.62 47.6202L50 40.8302L41.51 37.1002L37.45 42.7202C35.5298 42.431 33.5804 42.3906 31.65 42.6002L27.84 36.7902L19.22 40.1402L20.32 47.0002C18.7476 48.1435 17.3322 49.4884 16.11 51.0002L9.32998 49.5702L5.59998 58.0002L11.22 62.0002C10.9141 63.9286 10.867 65.8893 11.08 67.8302L5.28998 71.6902L8.62998 80.3202ZM21.15 59.8502C22.2732 57.304 24.1263 55.148 26.475 53.655C28.8236 52.1621 31.5622 51.3991 34.3444 51.4627C37.1267 51.5262 39.8276 52.4135 42.1056 54.0122C44.3836 55.6109 46.1363 57.8492 47.1421 60.4441C48.1478 63.0389 48.3615 65.8738 47.756 68.5901C47.1505 71.3064 45.7531 73.7822 43.7405 75.7043C41.7279 77.6263 39.1905 78.9084 36.4492 79.3883C33.7079 79.8681 30.8858 79.5243 28.34 78.4002C24.9271 76.8933 22.2524 74.0926 20.904 70.6139C19.5557 67.1353 19.6442 63.2636 21.15 59.8502V59.8502Z" fill="#63B6EE"/>
</svg>
