<svg width="14" height="20" viewBox="0 0 14 20" fill="none" xmlns="http://www.w3.org/2000/svg">
<path fill-rule="evenodd" clip-rule="evenodd" d="M7.11156 0.12097C8.05537 1.15041 8.96151 2.21825 9.80406 3.33242C10.5122 4.26879 11.1783 5.24161 11.7721 6.25475C12.6707 7.78804 13.4492 9.49014 13.8032 11.2403C13.9405 11.9192 14.0146 12.6135 13.9976 13.3066C13.9829 13.909 13.8989 14.5084 13.7305 15.0875C13.4287 16.1248 12.8725 17.0368 12.0807 17.7722C10.7207 19.0354 8.83501 19.6336 6.99962 19.6337C5.16439 19.6338 3.27873 19.0359 1.91879 17.7728C1.127 17.0374 0.570936 16.1254 0.269275 15.0882C0.10088 14.5092 0.0170593 13.9097 0.00236968 13.3074C-0.014509 12.6142 0.059649 11.92 0.197049 11.241C0.551186 9.49076 1.32995 7.7886 2.22867 6.25527C2.82252 5.24207 3.48879 4.26917 4.19696 3.33271C5.03961 2.21845 5.94589 1.15052 6.88977 0.120974L7.00067 0L7.11158 0.120974L7.11156 0.12097Z" fill="#50C4E9"/>
<path fill-rule="evenodd" clip-rule="evenodd" d="M5.68704 8.49127C5.37827 8.1545 4.99787 8 4.54216 8C4.07488 8 3.68676 8.15133 3.41086 8.53653C3.11404 8.95092 3 9.4341 3 9.93907C3 10.4686 3.08296 11.096 3.45032 11.5069C3.74707 11.8388 4.10883 12 4.55395 12C5.00686 12 5.376 11.8319 5.68061 11.4975C6.04747 11.0947 6.14917 10.5317 6.14917 10.0039C6.14917 9.47812 6.05547 8.89309 5.68704 8.49127L5.68704 8.49127Z" fill="white"/>
<path fill-rule="evenodd" clip-rule="evenodd" d="M9.19129 7L4 17H4.97625L10.1477 7H9.19129Z" fill="white"/>
<path fill-rule="evenodd" clip-rule="evenodd" d="M9.54805 12C9.08005 12 8.68863 12.1488 8.41021 12.5335C8.11108 12.9469 8 13.435 8 13.9391C8 14.4702 8.08365 15.0927 8.45074 15.5054C8.7465 15.838 9.10903 16 9.55397 16C10.0091 16 10.3822 15.8347 10.6883 15.4977C11.055 15.094 11.1551 14.5302 11.1551 14.002C11.1551 13.4775 11.0626 12.8923 10.6949 12.4913C10.3856 12.1539 10.0043 12 9.54806 12L9.54805 12Z" fill="white"/>
<path fill-rule="evenodd" clip-rule="evenodd" d="M5.94554 9.17288C5.83689 9.05438 5.70302 9 5.54267 9C5.37824 9 5.24166 9.05326 5.14458 9.18881C5.04013 9.33463 5 9.50466 5 9.68235C5 9.86867 5.02919 10.0895 5.15846 10.2341C5.26289 10.3509 5.39019 10.4076 5.54681 10.4076C5.70619 10.4076 5.83609 10.3484 5.94327 10.2308C6.07237 10.089 6.10815 9.8909 6.10815 9.70518C6.10815 9.52015 6.07518 9.31428 5.94554 9.17288V9.17288ZM10.37 12.7653C10.2613 12.6468 10.1275 12.5924 9.96712 12.5924C9.80269 12.5924 9.6661 12.6457 9.56903 12.7812C9.46458 12.9271 9.42445 13.0971 9.42445 13.2748C9.42445 13.4611 9.45364 13.6819 9.5829 13.8265C9.68734 13.9433 9.81464 14 9.97126 14C10.1306 14 10.2605 13.9408 10.3677 13.8232C10.4968 13.6814 10.5326 13.4833 10.5326 13.2976C10.5326 13.1126 10.4996 12.9067 10.37 12.7653V12.7653Z" fill="#50C4E9"/>
</svg>
