<svg height="512pt" viewBox="-49 0 512 512.001" width="512pt" xmlns="http://www.w3.org/2000/svg">
<path d="m70.085938 499.175781 57.828124-214.054687-68.707031-5.511719-23.519531 216.914063c-.460938 4.257812 2.875 7.972656 7.15625 7.972656h20.296875c3.25 0 6.097656-2.179688 6.945313-5.320313zm0 0" fill="#537983"/>
<path d="m346.371094 499.175781-57.828125-214.054687 68.710937-5.511719 23.515625 216.914063c.460938 4.253906-2.871093 7.96875-7.152343 7.96875h-20.300782c-3.25.003906-6.097656-2.175782-6.945312-5.316407zm0 0" fill="#537983"/>
<path d="m224.707031 472.039062h-35.609375c-8.582031 0-15.542968-6.960937-15.542968-15.542968v-48.480469h66.691406v48.480469c0 8.582031-6.957032 15.542968-15.539063 15.542968zm0 0" fill="#deecf1"/>
<path d="m31.953125 42.160156v275.207032c0 9.019531 3.960937 17.582031 10.835937 23.417968l130.785157 101.464844h66.691406l130.753906-101.464844c6.871094-5.835937 10.832031-14.398437 10.832031-23.414062v-275.210938c0-19.140625-15.515624-34.65625-34.65625-34.65625h-280.585937c-19.140625 0-34.65625 15.515625-34.65625 34.65625zm0 0" fill="#deecf1"/>
<path d="m347.195312 7.503906h-20.667968c13.570312 5.996094 24.386718 20.144532 24.386718 34.65625v275.210938c0 9.015625-3.960937 17.578125-10.832031 23.414062l-20.226562 15.695313-110.523438 85.769531h30.9375l130.75-101.464844c6.871094-5.835937 10.832031-14.398437 10.832031-23.414062v-275.210938c0-19.140625-15.515624-34.65625-34.65625-34.65625zm0 0" fill="#a8d3d8"/>
<path d="m7.503906 57.65625c0 8.988281 7.289063 16.273438 16.273438 16.273438h366.25c8.984375 0 16.269531-7.285157 16.269531-16.273438 0-8.984375-7.285156-16.273438-16.269531-16.273438h-366.25c-8.988282 0-16.273438 7.289063-16.273438 16.273438zm0 0" fill="#8ebac5"/>
<path d="m209.332031 442.25h-.019531v29.789062h15.394531c8.582031 0 15.542969-6.960937 15.542969-15.542968v-14.25h-30.917969zm0 0" fill="#a8d3d8"/>
<path d="m42.789062 340.785156 130.785157 101.464844h66.695312l130.75-101.464844zm0 0" fill="#8ebac5"/>
<path d="m240.269531 442.25 130.75-101.464844h-30.9375l-20.226562 15.695313-110.523438 85.769531zm0 0" fill="#7ca1b1"/>
<path d="m390.023438 33.878906h-1.519532c-3.898437-19.238281-21.082031-33.878906-41.308594-33.878906h-280.585937c-20.230469 0-37.410156 14.640625-41.3125 33.878906h-1.519531c-13.109375 0-23.777344 10.667969-23.777344 23.777344 0 13.113281 10.667969 23.78125 23.777344 23.78125h.671875v188.238281c0 9.921875 15.007812 9.9375 15.007812 0v-188.242187h26.441407v221.597656c0 9.921875 15.011718 9.9375 15.011718 0v-36.597656h63.929688v36.597656c0 9.921875 15.007812 9.9375 15.007812 0v-221.597656h143.554688c9.921875 0 9.933594-15.007813 0-15.007813h-279.625c-4.832032 0-8.765625-3.933593-8.765625-8.769531s3.933593-8.765625 8.765625-8.765625h366.25c4.832031 0 8.765625 3.929687 8.765625 8.765625s-3.933594 8.769531-8.765625 8.769531h-56.417969c-9.921875 0-9.9375 15.007813 0 15.007813h40.738281v235.9375c0 5.957031-2.273437 11.625-6.3125 15.910156h-322.265625c-4.039062-4.285156-6.3125-9.957031-6.3125-15.914062v-17.339844c0-9.921875-15.011719-9.933594-15.011719 0v17.339844c0 23.28125 17.488282 31.503906 19.457032 33.78125l-15.675782 144.566406c-.9375 8.675781 5.863282 16.285156 14.617188 16.285156h20.296875c6.628906 0 12.464844-4.46875 14.191406-10.867188l27.707031-102.554687 61.011719 47.332031v10.585938c0 12.707031 10.339844 23.046875 23.046875 23.046875h35.605469c12.710937 0 23.046875-10.339844 23.046875-23.046875v-10.554688l63.210938-49.050781 28.164062 104.242187c1.726562 6.398438 7.5625 10.867188 14.191406 10.867188h20.296875c8.726563 0 15.558594-7.578125 14.617188-16.285156l-15.878907-146.464844c.304688-.367188 17.003907-10.488281 17.003907-31.878906v-235.9375h.671875c13.109375 0 23.777344-10.664063 23.777344-23.777344 0-13.109375-10.667969-23.777344-23.78125-23.777344zm-245.183594 152.503906h-63.929688v-50.03125h63.929688zm-63.929688 65.039063v-50.03125h63.929688v50.03125zm63.929688-130.082031h-63.929688v-39.90625h63.929688zm-78.230469-106.328125h280.585937c11.972657 0 22.289063 7.960937 25.828126 18.867187h-332.246094c3.542968-10.90625 13.859375-18.867187 25.832031-18.867187zm171.089844 419.734375h-61.554688l-111.441406-86.457032h284.402344zm-174.796875 62.242187h-19.714844l14.640625-135.035156 34.355469 26.652344zm161.804687-32.457031h-35.609375c-4.429687 0-8.035156-3.601562-8.035156-8.035156v-6.742188h51.679688v6.742188c0 4.433594-3.605469 8.035156-8.035157 8.035156zm148.5625 32.457031h-19.714843l-29.738282-110.074219 34.609375-26.855468zm0 0"/>
<path d="M311.421 139.017L312.089 139.685L312.163 139.3C333.156 145.65 348.957 160.264 359.544 173.372C364.879 179.978 368.882 186.192 371.55 190.754C372.884 193.034 373.885 194.901 374.551 196.196C374.884 196.843 375.133 197.348 375.299 197.69C375.36 197.816 375.409 197.919 375.448 198C375.393 198.115 375.316 198.277 375.216 198.483C374.994 198.936 374.662 199.604 374.218 200.454C373.329 202.154 371.995 204.586 370.216 207.505C366.657 213.345 361.318 221.13 354.202 228.912C339.966 244.484 318.661 260 290.286 260C280.741 260 270.175 257.902 259.798 254.273L259.563 254.191L259.355 254.329L232.633 272.144L227.594 236.874L227.567 236.679L227.414 236.556C224.434 234.15 221.613 231.649 219.118 228.984L218.816 228.662L218.458 228.922L176.5 259.516V136.483L218.458 167.078L218.816 167.338L219.118 167.015C227.522 158.038 238.952 150.509 251.202 145.093L251.5 144.961V144.635V123.5H263.5C265.446 123.5 273.705 123.641 283.351 125.66C293.009 127.681 303.981 131.571 311.421 139.017ZM313.18 245.821L313.889 245.122C304.746 233.794 301.5 217.058 301.5 198C301.5 178.942 304.746 162.206 313.889 150.878L313.18 150.179C301.056 160.259 292.987 177.864 292.987 198C292.987 218.136 301.056 235.741 313.18 245.821ZM325.5 185.5C325.5 189.228 328.522 192.25 332.25 192.25C335.978 192.25 339 189.228 339 185.5C339 181.772 335.978 178.75 332.25 178.75C328.522 178.75 325.5 181.772 325.5 185.5Z" fill="#537983" stroke="#000000" stroke-width="5"/>

</svg>
