<svg width="60" height="60" viewBox="0 0 60 60" fill="none" xmlns="http://www.w3.org/2000/svg">
<path d="M29.5725 12.1238C29.5725 11.7509 29.7207 11.3932 29.9844 11.1295C30.2481 10.8658 30.6058 10.7176 30.9788 10.7176H48.6694C49.0423 10.7176 49.4 10.8658 49.6637 11.1295C49.9275 11.3932 50.0756 11.7509 50.0756 12.1238C50.0756 12.4968 49.9275 12.8545 49.6637 13.1182C49.4 13.3819 49.0423 13.5301 48.6694 13.5301H30.9788C30.6058 13.5301 30.2481 13.3819 29.9844 13.1182C29.7207 12.8545 29.5725 12.4968 29.5725 12.1238V12.1238ZM48.6694 16.6623H27.2288C26.8558 16.6623 26.4981 16.8104 26.2344 17.0742C25.9707 17.3379 25.8225 17.6956 25.8225 18.0685C25.8225 18.4415 25.9707 18.7992 26.2344 19.0629C26.4981 19.3266 26.8558 19.4748 27.2288 19.4748H48.6694C49.0423 19.4748 49.4 19.3266 49.6637 19.0629C49.9275 18.7992 50.0756 18.4415 50.0756 18.0685C50.0756 17.6956 49.9275 17.3379 49.6637 17.0742C49.4 16.8104 49.0423 16.6623 48.6694 16.6623ZM48.6694 26.7188H30.9788C30.6058 26.7188 30.2481 26.867 29.9844 27.1307C29.7207 27.3945 29.5725 27.7521 29.5725 28.1251C29.5725 28.4981 29.7207 28.8557 29.9844 29.1195C30.2481 29.3832 30.6058 29.5313 30.9788 29.5313H48.6694C49.0423 29.5313 49.4 29.3832 49.6637 29.1195C49.9275 28.8557 50.0756 28.4981 50.0756 28.1251C50.0756 27.7521 49.9275 27.3945 49.6637 27.1307C49.4 26.867 49.0423 26.7188 48.6694 26.7188ZM48.6694 32.6654H27.2288C26.8558 32.6654 26.4981 32.8136 26.2344 33.0773C25.9707 33.341 25.8225 33.6987 25.8225 34.0717C25.8225 34.4446 25.9707 34.8023 26.2344 35.066C26.4981 35.3298 26.8558 35.4779 27.2288 35.4779H48.6694C49.0423 35.4779 49.4 35.3298 49.6637 35.066C49.9275 34.8023 50.0756 34.4446 50.0756 34.0717C50.0756 33.6987 49.9275 33.341 49.6637 33.0773C49.4 32.8136 49.0423 32.6654 48.6694 32.6654ZM19.4719 24.5251H11.3344C10.9614 24.5251 10.6037 24.6733 10.34 24.937C10.0763 25.2007 9.92813 25.5584 9.92813 25.9313V34.0688C9.92813 34.4418 10.0763 34.7995 10.34 35.0632C10.6037 35.3269 10.9614 35.4751 11.3344 35.4751H19.4719C19.8448 35.4751 20.2025 35.3269 20.4662 35.0632C20.73 34.7995 20.8781 34.4418 20.8781 34.0688V25.9313C20.8781 25.5584 20.73 25.2007 20.4662 24.937C20.2025 24.6733 19.8448 24.5251 19.4719 24.5251V24.5251ZM19.4719 8.52197H11.3344C10.9614 8.52197 10.6037 8.67013 10.34 8.93385C10.0763 9.19758 9.92813 9.55526 9.92813 9.92822V18.0657C9.92813 18.4387 10.0763 18.7964 10.34 19.0601C10.6037 19.3238 10.9614 19.472 11.3344 19.472H19.4719C19.8448 19.472 20.2025 19.3238 20.4662 19.0601C20.73 18.7964 20.8781 18.4387 20.8781 18.0657V9.92822C20.8781 9.55526 20.73 9.19758 20.4662 8.93385C20.2025 8.67013 19.8448 8.52197 19.4719 8.52197ZM19.4719 40.5282H11.3344C10.9614 40.5282 10.6037 40.6764 10.34 40.9401C10.0763 41.2038 9.92813 41.5615 9.92813 41.9345V50.072C9.92813 50.4449 10.0763 50.8026 10.34 51.0663C10.6037 51.3301 10.9614 51.4782 11.3344 51.4782H19.4719C19.8448 51.4782 20.2025 51.3301 20.4662 51.0663C20.73 50.8026 20.8781 50.4449 20.8781 50.072V41.9345C20.8781 41.5615 20.73 41.2038 20.4662 40.9401C20.2025 40.6764 19.8448 40.5282 19.4719 40.5282V40.5282ZM48.6694 42.7201H30.9788C30.6058 42.7201 30.2481 42.8683 29.9844 43.132C29.7207 43.3957 29.5725 43.7534 29.5725 44.1263C29.5725 44.4993 29.7207 44.857 29.9844 45.1207C30.2481 45.3844 30.6058 45.5326 30.9788 45.5326H48.6694C49.0423 45.5326 49.4 45.3844 49.6637 45.1207C49.9275 44.857 50.0756 44.4993 50.0756 44.1263C50.0756 43.7534 49.9275 43.3957 49.6637 43.132C49.4 42.8683 49.0423 42.7201 48.6694 42.7201V42.7201ZM48.6694 48.6667H27.2288C26.8558 48.6667 26.4981 48.8148 26.2344 49.0785C25.9707 49.3423 25.8225 49.6999 25.8225 50.0729C25.8225 50.4459 25.9707 50.8036 26.2344 51.0673C26.4981 51.331 26.8558 51.4792 27.2288 51.4792H48.6694C49.0423 51.4792 49.4 51.331 49.6637 51.0673C49.9275 50.8036 50.0756 50.4459 50.0756 50.0729C50.0756 49.6999 49.9275 49.3423 49.6637 49.0785C49.4 48.8148 49.0423 48.6667 48.6694 48.6667V48.6667Z" fill="white"/>
<path d="M15.3077 17C14.6957 17 14.1087 16.7569 13.6759 16.3241C13.2431 15.8913 13 15.3043 13 14.6923C13 13.4185 15.3077 11 15.3077 11C15.3077 11 17.6154 13.4185 17.6154 14.6923C17.6154 15.3043 17.3723 15.8913 16.9395 16.3241C16.5067 16.7569 15.9197 17 15.3077 17Z" fill="#5AAAE7"/>
<path d="M15.3077 16.0769C14.9405 16.0769 14.5883 15.931 14.3286 15.6713C14.069 15.4117 13.9231 15.0595 13.9231 14.6923C13.9231 14.5698 13.9717 14.4524 14.0583 14.3659C14.1448 14.2793 14.2622 14.2307 14.3846 14.2307C14.507 14.2307 14.6244 14.2793 14.711 14.3659C14.7975 14.4524 14.8462 14.5698 14.8462 14.6923C14.8462 14.8147 14.8948 14.9321 14.9814 15.0186C15.0679 15.1052 15.1853 15.1538 15.3077 15.1538C15.4301 15.1538 15.5475 15.2024 15.6341 15.289C15.7206 15.3755 15.7692 15.4929 15.7692 15.6153C15.7692 15.7377 15.7206 15.8551 15.6341 15.9417C15.5475 16.0282 15.4301 16.0769 15.3077 16.0769Z" fill="white"/>
<path d="M15.3077 33C14.6957 33 14.1087 32.7569 13.6759 32.3241C13.2431 31.8913 13 31.3043 13 30.6923C13 29.4185 15.3077 27 15.3077 27C15.3077 27 17.6154 29.4185 17.6154 30.6923C17.6154 31.3043 17.3723 31.8913 16.9395 32.3241C16.5067 32.7569 15.9197 33 15.3077 33Z" fill="#5AAAE7"/>
<path d="M15.3077 32.0769C14.9405 32.0769 14.5883 31.931 14.3286 31.6713C14.069 31.4117 13.9231 31.0595 13.9231 30.6923C13.9231 30.5698 13.9717 30.4524 14.0583 30.3659C14.1448 30.2793 14.2622 30.2307 14.3846 30.2307C14.507 30.2307 14.6244 30.2793 14.711 30.3659C14.7975 30.4524 14.8462 30.5698 14.8462 30.6923C14.8462 30.8147 14.8948 30.9321 14.9814 31.0186C15.0679 31.1052 15.1853 31.1538 15.3077 31.1538C15.4301 31.1538 15.5475 31.2024 15.6341 31.289C15.7206 31.3755 15.7692 31.4929 15.7692 31.6153C15.7692 31.7377 15.7206 31.8551 15.6341 31.9417C15.5475 32.0282 15.4301 32.0769 15.3077 32.0769Z" fill="white"/>
<path d="M15.3077 49C14.6957 49 14.1087 48.7569 13.6759 48.3241C13.2431 47.8913 13 47.3043 13 46.6923C13 45.4185 15.3077 43 15.3077 43C15.3077 43 17.6154 45.4185 17.6154 46.6923C17.6154 47.3043 17.3723 47.8913 16.9395 48.3241C16.5067 48.7569 15.9197 49 15.3077 49Z" fill="#5AAAE7"/>
<path d="M15.3077 48.0769C14.9405 48.0769 14.5883 47.931 14.3286 47.6713C14.069 47.4117 13.9231 47.0595 13.9231 46.6923C13.9231 46.5698 13.9717 46.4524 14.0583 46.3659C14.1448 46.2793 14.2622 46.2307 14.3846 46.2307C14.507 46.2307 14.6244 46.2793 14.711 46.3659C14.7975 46.4524 14.8462 46.5698 14.8462 46.6923C14.8462 46.8147 14.8948 46.9321 14.9814 47.0186C15.0679 47.1052 15.1853 47.1538 15.3077 47.1538C15.4301 47.1538 15.5475 47.2024 15.6341 47.289C15.7206 47.3755 15.7692 47.4929 15.7692 47.6153C15.7692 47.7377 15.7206 47.8551 15.6341 47.9417C15.5475 48.0282 15.4301 48.0769 15.3077 48.0769Z" fill="white"/>
</svg>
