<svg width="8" height="18" viewBox="0 0 8 18" fill="none" xmlns="http://www.w3.org/2000/svg">
<path d="M4 0C2.3432 0 1 1.3432 1 3V11.3604C0.3794 12.0652 0 12.9872 0 14C0 16.2092 1.7908 18 4 18C4.072 18 4.1446 17.998 4.2174 17.9942C6.2834 17.8848 7.9522 16.1604 7.999 14.092C8.0228 13.043 7.6394 12.0864 7 11.3604V10H5.5V11.9266L5.8742 12.3516C6.2914 12.8254 6.5134 13.4314 6.4992 14.058C6.4704 15.335 5.411 16.4288 4.138 16.4962C4.092 16.4988 4.0458 16.5 4 16.5C2.6214 16.5 1.5 15.3786 1.5 14C1.5 13.3952 1.7222 12.8098 2.1258 12.3516L2.5 11.9266V3C2.5 2.173 3.173 1.5 4 1.5C4.827 1.5 5.5 2.173 5.5 3H7C7 1.3432 5.6568 0 4 0Z" fill="#50C4E9"/>
<path d="M7 6H5.5V7H7V6Z" fill="#50C4E9"/>
<path d="M7 4H5.5V5H7V4Z" fill="#50C4E9"/>
<path d="M3.5 6V12.5876C2.9184 12.7942 2.5 13.3484 2.5 14.0002C2.5 14.8274 3.1728 15.5002 4 15.5002C4.8272 15.5002 5.5 14.8274 5.5 14.0002C5.5 13.3486 5.0816 12.7942 4.5 12.5876V6H3.5Z" fill="#50C4E9"/>
</svg>
