<svg width="60" height="60" viewBox="0 0 60 60" fill="none" xmlns="http://www.w3.org/2000/svg">
<path d="M43.125 11.25H16.875V15H43.125V11.25Z" fill="#787680"/>
<path d="M45 11.25H15L30 2.8125L45 11.25Z" fill="white"/>
<path d="M43.125 33.75V37.5H40.3125H19.6875H16.875V33.75H43.125Z" fill="white"/>
<path d="M43.125 15H16.875V33.75H43.125V15Z" fill="white"/>
<path d="M20.625 37.5H18.75V58.125H20.625V37.5Z" fill="white"/>
<path d="M41.25 37.5H39.375V58.125H41.25V37.5Z" fill="white"/>
<path d="M20.2392 38.6172L19.1364 40.1335L39.7616 55.1334L40.8644 53.6171L20.2392 38.6172Z" fill="white"/>
<path d="M39.7594 38.6141L19.1382 53.6194L20.2414 55.1355L40.8626 40.1302L39.7594 38.6141Z" fill="white"/>
<path d="M45 36.5625H14.0625V38.4375H45V36.5625Z" fill="#787680"/>
<path d="M30 30C28.7568 30 27.5645 29.5061 26.6854 28.6271C25.8064 27.748 25.3125 26.5557 25.3125 25.3125C25.3125 22.725 30 17.8125 30 17.8125C30 17.8125 34.6875 22.725 34.6875 25.3125C34.6875 26.5557 34.1936 27.748 33.3146 28.6271C32.4355 29.5061 31.2432 30 30 30Z" fill="#5AAAE7"/>
<path d="M30 28.125C29.2541 28.125 28.5387 27.8287 28.0113 27.3012C27.4838 26.7738 27.1875 26.0584 27.1875 25.3125C27.1875 25.0639 27.2863 24.8254 27.4621 24.6496C27.6379 24.4738 27.8764 24.375 28.125 24.375C28.3736 24.375 28.6121 24.4738 28.7879 24.6496C28.9637 24.8254 29.0625 25.0639 29.0625 25.3125C29.0625 25.5611 29.1613 25.7996 29.3371 25.9754C29.5129 26.1512 29.7514 26.25 30 26.25C30.2486 26.25 30.4871 26.3488 30.6629 26.5246C30.8387 26.7004 30.9375 26.9389 30.9375 27.1875C30.9375 27.4361 30.8387 27.6746 30.6629 27.8504C30.4871 28.0262 30.2486 28.125 30 28.125Z" fill="white"/>
<path d="M43.125 11.25H16.875V12.1875H43.125V11.25Z" fill="white"/>
<path d="M20.625 16.875C20.625 16.3572 20.2053 15.9375 19.6875 15.9375C19.1697 15.9375 18.75 16.3572 18.75 16.875V18.75C18.75 19.2678 19.1697 19.6875 19.6875 19.6875C20.2053 19.6875 20.625 19.2678 20.625 18.75V16.875Z" fill="white"/>
<path d="M20.625 21.5625C20.625 21.0447 20.2053 20.625 19.6875 20.625C19.1697 20.625 18.75 21.0447 18.75 21.5625C18.75 22.0803 19.1697 22.5 19.6875 22.5C20.2053 22.5 20.625 22.0803 20.625 21.5625Z" fill="white"/>
</svg>
