<svg width="1000" height="259" viewBox="0 0 1000 259" fill="none" xmlns="http://www.w3.org/2000/svg">
<path fill-rule="evenodd" clip-rule="evenodd" d="M0 139.074L41.5312 109.099C83.4236 78.7635 166.847 18.814 249.91 4.00717C333.333 -11.1608 416.757 18.814 500.181 58.9007C583.243 98.9875 666.667 148.825 750.09 143.769C833.514 139.074 916.576 78.7635 958.469 48.7888L1000 18.814V258.973H958.469C916.576 258.973 833.514 258.973 750.09 258.973C666.667 258.973 583.243 258.973 500.181 258.973C416.757 258.973 333.333 258.973 249.91 258.973C166.847 258.973 83.4236 258.973 41.5312 258.973H0V139.074Z" fill="#BADBF1" />
</svg>
